<svg xmlns="http://www.w3.org/2000/svg" viewBox="0 0 512 512" width="512" height="512">
  <!-- Gradiente marca -->
  <defs>
    <linearGradient id="bg" x1="0" y1="0" x2="1" y2="1">
      <stop offset="0%" stop-color="#60a5fa"/>
      <stop offset="55%" stop-color="#1d4ed8"/>
      <stop offset="100%" stop-color="#1e1b4b"/>
    </linearGradient>
    <radialGradient id="glow" cx="0.5" cy="0.5" r="0.5">
      <stop offset="0%" stop-color="#ffffff" stop-opacity="0.6"/>
      <stop offset="100%" stop-color="#ffffff" stop-opacity="0"/>
    </radialGradient>
  </defs>

  <!-- Fondo maskable (zona segura = círculo interior al 80%) -->
  <rect width="512" height="512" rx="112" fill="url(#bg)"/>

  <!-- Glow -->
  <circle cx="256" cy="256" r="180" fill="url(#glow)"/>

  <!-- Símbolo: sol/brillo (equivalente a brightness_high) -->
  <g fill="#ffffff" transform="translate(256 256)">
    <!-- Core -->
    <circle r="68"/>
    <!-- Rayos -->
    <g>
      <rect x="-10" y="-128" width="20" height="40" rx="10"/>
      <rect x="-10" y="88"   width="20" height="40" rx="10"/>
      <rect x="-128" y="-10" width="40" height="20" rx="10"/>
      <rect x="88" y="-10"   width="40" height="20" rx="10"/>
      <rect x="-10" y="-128" width="20" height="40" rx="10" transform="rotate(45)"/>
      <rect x="-10" y="88"   width="20" height="40" rx="10" transform="rotate(45)"/>
      <rect x="-128" y="-10" width="40" height="20" rx="10" transform="rotate(45)"/>
      <rect x="88" y="-10"   width="40" height="20" rx="10" transform="rotate(45)"/>
    </g>
  </g>
</svg>
