<svg xmlns="http://www.w3.org/2000/svg" viewBox="0 0 512 512" width="512" height="512">
  <defs>
    <linearGradient id="reminderBg" x1="0" y1="0" x2="1" y2="1">
      <stop offset="0%" stop-color="#fbbf24"/>
      <stop offset="100%" stop-color="#d97706"/>
    </linearGradient>
    <radialGradient id="reminderGlow" cx="0.5" cy="0.4" r="0.55">
      <stop offset="0%" stop-color="#ffffff" stop-opacity="0.4"/>
      <stop offset="100%" stop-color="#ffffff" stop-opacity="0"/>
    </radialGradient>
  </defs>

  <rect width="512" height="512" rx="112" fill="url(#reminderBg)"/>
  <circle cx="256" cy="220" r="220" fill="url(#reminderGlow)"/>

  <!-- Antena -->
  <rect x="240" y="104" width="32" height="28" rx="16" fill="#ffffff"/>

  <!-- Campana -->
  <path d="M256 128
           c-68 0 -120 52 -120 120
           v44
           c0 24 -8 46 -24 64
           l-16 18
           a10 10 0 0 0 8 16
           h304
           a10 10 0 0 0 8 -16
           l-16 -18
           c-16 -18 -24 -40 -24 -64
           v-44
           c0 -68 -52 -120 -120 -120 z"
        fill="#ffffff"/>

  <!-- Badajo -->
  <path d="M220 400
           a36 36 0 0 0 72 0 z"
        fill="#ffffff"/>

  <!-- Destello interno que le da profundidad -->
  <path d="M256 168
           c-44 0 -78 34 -78 78
           v8
           a6 6 0 0 0 12 0
           v-8
           c0 -36 30 -66 66 -66
           a6 6 0 0 0 0 -12 z"
        fill="#fbbf24" opacity="0.55"/>
</svg>
